<?xml version="1.0" standalone="no"?>
<!DOCTYPE svg PUBLIC "-//W3C//DTD SVG 20010904//EN"
 "http://www.w3.org/TR/2001/REC-SVG-20010904/DTD/svg10.dtd">
<svg version="1.0" xmlns="http://www.w3.org/2000/svg"
 width="391.000000pt" height="391.000000pt" viewBox="0 0 391.000000 391.000000"
 preserveAspectRatio="xMidYMid meet">
<metadata>
Created by potrace 1.16, written by Peter Selinger 2001-2019
</metadata>
<g transform="translate(0.000000,391.000000) scale(0.100000,-0.100000)"
fill="#000000" stroke="none">
<path d="M0 1955 l0 -1955 1955 0 1955 0 0 1955 0 1955 -1955 0 -1955 0 0
-1955z m380 1415 l0 -210 110 0 110 0 0 -45 0 -45 -170 0 -170 0 0 255 0 255
60 0 60 0 0 -210z m637 -45 c51 -137 93 -251 93 -253 0 -2 -30 -2 -66 0 l-67
3 -14 48 -14 47 -84 0 -84 0 -14 -47 -14 -48 -68 -3 c-62 -3 -67 -1 -60 15 4
10 45 121 91 247 47 126 87 233 90 238 3 5 31 8 62 6 l57 -3 92 -250z m243 71
c0 -170 1 -185 21 -210 25 -32 75 -35 110 -7 23 19 24 23 27 210 l3 191 60 0
60 0 -3 -204 c-3 -189 -5 -207 -24 -233 -32 -43 -79 -70 -134 -78 -97 -13
-171 15 -217 84 -22 32 -23 43 -23 232 l0 199 60 0 60 0 0 -184z m674 160 c58
-29 78 -68 73 -145 -3 -59 -6 -66 -42 -99 l-38 -35 49 -96 c27 -52 51 -99 52
-103 2 -5 -26 -8 -62 -8 l-66 0 -45 90 c-44 88 -46 90 -80 90 l-35 0 0 -90 0
-90 -60 0 -60 0 0 256 0 256 138 -4 c109 -3 145 -7 176 -22z m506 -21 l0 -45
-115 0 -115 0 0 -55 0 -55 100 0 100 0 0 -45 0 -45 -100 0 -100 0 0 -65 0 -65
115 0 115 0 0 -45 0 -45 -175 0 -175 0 0 255 0 255 175 0 175 0 0 -45z m260
-110 l85 -150 3 153 3 152 64 0 65 0 0 -255 0 -255 -63 0 -63 0 -90 157 -89
158 -3 -158 -3 -157 -59 0 -60 0 0 255 0 256 62 -3 63 -3 85 -150z m690 110
l0 -45 -75 0 -75 0 0 -210 0 -210 -65 0 -65 0 0 210 0 210 -75 0 -75 0 0 45 0
45 215 0 215 0 0 -45z m-2801 -844 c37 -19 66 -58 81 -110 l9 -31 -60 0 c-54
0 -60 2 -69 24 -11 29 -38 46 -75 46 -68 0 -99 -51 -99 -165 0 -119 30 -165
108 -165 57 0 66 7 66 56 l0 44 -40 0 -40 0 0 40 0 40 105 0 105 0 0 -103 c0
-87 -3 -107 -18 -120 -48 -44 -176 -67 -252 -47 -105 28 -152 97 -158 235 -7
149 41 238 145 272 49 16 147 8 192 -16z m475 -5 c58 -29 78 -68 73 -145 -3
-59 -6 -66 -42 -99 l-38 -35 49 -96 c27 -52 51 -99 52 -103 2 -5 -26 -8 -62
-8 l-66 0 -45 90 c-44 88 -46 90 -80 90 l-35 0 0 -90 0 -90 -60 0 -60 0 0 256
0 256 138 -4 c109 -3 145 -7 176 -22z m286 -231 l0 -255 -60 0 -60 0 0 255 0
255 60 0 60 0 0 -255z m309 76 l56 -174 57 174 56 174 81 3 81 3 0 -256 0
-255 -62 0 -61 0 5 178 6 177 -61 -177 -62 -178 -40 0 -40 0 -62 178 -61 177
5 -177 6 -178 -61 0 -62 0 0 255 0 256 81 -3 81 -3 57 -174z m778 -76 c51
-137 93 -251 93 -253 0 -2 -30 -2 -66 0 l-67 3 -14 48 -14 47 -84 0 -84 0 -14
-47 -14 -48 -68 -3 c-62 -3 -67 -1 -60 15 4 10 45 121 91 247 47 126 87 233
90 238 3 5 31 8 62 6 l57 -3 92 -250z m253 45 l0 -210 110 0 110 0 0 -45 0
-45 -170 0 -170 0 0 255 0 255 60 0 60 0 0 -210z m540 186 c93 -49 125 -108
125 -231 0 -94 -12 -132 -59 -183 -45 -51 -93 -66 -218 -70 l-118 -4 0 257 0
257 118 -4 c88 -3 126 -8 152 -22z m320 -231 l0 -255 -60 0 -60 0 0 255 0 255
60 0 60 0 0 -255z m-1600 -2045 l0 -120 -845 0 -845 0 0 120 0 120 845 0 845
0 0 -120z"/>
<path d="M1740 3415 l0 -65 53 0 c68 0 97 19 97 65 0 46 -29 65 -97 65 l-53 0
0 -65z"/>
<path d="M870 2545 l0 -65 53 0 c68 0 97 19 97 65 0 46 -29 65 -97 65 l-53 0
0 -65z"/>
<path d="M3080 2455 l0 -165 39 0 c59 0 97 36 111 107 26 123 -24 223 -110
223 l-40 0 0 -165z"/>
</g>
</svg>
