<?xml version="1.0" encoding="UTF-8" standalone="no"?>
<!DOCTYPE svg PUBLIC "-//W3C//DTD SVG 1.1//EN" "http://www.w3.org/Graphics/SVG/1.1/DTD/svg11.dtd">
<svg width="100%" height="100%" viewBox="0 0 800 800" version="1.1" xmlns="http://www.w3.org/2000/svg" xmlns:xlink="http://www.w3.org/1999/xlink" xml:space="preserve" xmlns:serif="http://www.serif.com/" style="fill-rule:evenodd;clip-rule:evenodd;stroke-linecap:round;stroke-linejoin:round;stroke-miterlimit:1.5;">
    <g id="Calque4">
        <g transform="matrix(1,-0.000693658,0.000693658,1,7.56914,81.7276)">
            <path d="M103.955,322.501C104.131,299.875 104.483,254.622 107.01,231.242C108.819,214.509 111.58,196.983 119.117,182.222C126.654,167.461 138.97,153.621 152.23,142.678C165.848,131.44 184.715,121.058 200.825,114.794C216.06,108.87 232.555,105.587 248.893,105.092C306.388,103.353 485.012,102.189 545.791,104.357C568.829,105.179 594.601,110.473 613.568,118.099C630.908,125.071 647.284,136.417 659.596,150.114C671.908,163.811 682.569,181.788 687.439,200.283C693.507,223.335 694.743,258.933 696.008,288.424C697.398,320.826 695.875,360.049 695.778,394.692C695.683,428.555 695.543,469.404 695.426,496.281C695.34,516.172 697.205,536.959 695.078,555.953C693.012,574.404 688.941,594.702 682.662,610.249C676.863,624.608 667.476,638.008 657.402,649.238C647.338,660.457 635.526,670.563 622.215,677.63C607.739,685.315 588.692,693.843 570.547,695.347C530.156,698.694 431.498,697.305 379.873,697.715C340.182,698.03 294.732,702.005 260.796,697.807C231.605,694.196 198.209,684.939 176.255,672.524C156.475,661.339 140.527,641.976 129.072,623.321C117.616,604.666 109.768,582.589 107.524,560.596C103.626,522.392 104.999,436.863 105.686,394.099" style="fill:none;stroke:rgb(19,18,40);stroke-width:25px;"/>
        </g>
        <g transform="matrix(0.876075,-0.000607697,0.000612338,0.882765,56.9315,127.308)">
            <path d="M104.385,330.925C104.333,297.686 103.932,255.202 107.01,231.242C109.154,214.548 111.58,196.983 119.117,182.222C126.654,167.461 138.97,153.621 152.23,142.678C165.848,131.44 184.715,121.058 200.825,114.794C216.06,108.87 232.555,105.587 248.893,105.092C306.388,103.353 485.012,102.189 545.791,104.357C568.829,105.179 594.601,110.473 613.568,118.099C630.908,125.071 647.284,136.417 659.596,150.114C671.908,163.811 682.569,181.788 687.439,200.283C693.507,223.335 694.743,258.933 696.008,288.424C697.398,320.826 695.875,360.049 695.778,394.692C695.683,428.555 695.543,469.404 695.426,496.281C695.34,516.172 697.205,536.959 695.078,555.953C693.012,574.404 688.941,594.702 682.662,610.249C676.863,624.608 667.476,638.008 657.402,649.238C647.338,660.457 635.526,670.563 622.215,677.63C607.739,685.315 588.692,693.843 570.547,695.347C530.156,698.694 431.498,697.305 379.873,697.715C340.182,698.03 294.732,702.005 260.796,697.807C231.605,694.196 198.209,684.939 176.255,672.524C156.475,661.339 140.527,641.976 129.072,623.321C117.616,604.666 109.384,582.625 107.524,560.596C103.409,511.863 104.471,385.817 104.385,330.925Z" style="fill:rgb(19,18,40);stroke:rgb(243,243,245);stroke-width:6.82px;"/>
        </g>
        <g transform="matrix(0.393497,0.393497,-0.650254,0.650254,519.858,-131.474)">
            <path d="M473.961,562.524C473.961,555.446 464.465,549.699 452.768,549.699L251.839,549.699C240.142,549.699 230.645,555.446 230.645,562.524L230.645,588.175C230.645,595.253 240.142,601 251.839,601L452.768,601C464.465,601 473.961,595.253 473.961,588.175L473.961,562.524Z" style="fill:rgb(243,243,245);"/>
        </g>
        <g transform="matrix(-0.393497,0.393497,-0.650254,-0.650254,796.75,616.772)">
            <path d="M473.961,562.524C473.961,555.446 464.465,549.699 452.768,549.699L251.839,549.699C240.142,549.699 230.645,555.446 230.645,562.524L230.645,588.175C230.645,595.253 240.142,601 251.839,601L452.768,601C464.465,601 473.961,595.253 473.961,588.175L473.961,562.524Z" style="fill:rgb(243,243,245);"/>
        </g>
        <g transform="matrix(-0.38484,-0.395433,0.635948,-0.653454,287.602,896.555)">
            <path d="M473.961,562.524C473.961,555.446 464.468,549.699 452.775,549.699L251.831,549.699C240.138,549.699 230.645,555.446 230.645,562.524L230.645,588.175C230.645,595.253 240.138,601 251.831,601L452.775,601C464.468,601 473.961,595.253 473.961,588.175L473.961,562.524Z" style="fill:rgb(243,243,245);"/>
        </g>
        <g transform="matrix(0.38484,-0.395433,0.635948,0.653454,16.8027,144.627)">
            <path d="M473.961,562.524C473.961,555.446 464.468,549.699 452.775,549.699L251.831,549.699C240.138,549.699 230.645,555.446 230.645,562.524L230.645,588.175C230.645,595.253 240.138,601 251.831,601L452.775,601C464.468,601 473.961,595.253 473.961,588.175L473.961,562.524Z" style="fill:rgb(243,243,245);"/>
        </g>
        <g transform="matrix(0.000370135,0.533598,-1.77005,0.00122781,1428.99,404.002)">
            <path d="M473.961,562.524C473.961,555.446 454.898,549.699 431.417,549.699L273.189,549.699C249.709,549.699 230.645,555.446 230.645,562.524L230.645,588.175C230.645,595.253 249.709,601 273.189,601L431.417,601C454.898,601 473.961,595.253 473.961,588.175L473.961,562.524Z" style="fill:rgb(243,243,245);"/>
        </g>
        <g transform="matrix(0.000370038,0.533458,-0.952976,0.00066104,1094.51,-42.7755)">
            <path d="M473.961,562.524C473.961,555.446 463.695,549.699 451.05,549.699L253.557,549.699C240.911,549.699 230.645,555.446 230.645,562.524L230.645,588.175C230.645,595.253 240.911,601 253.557,601L451.05,601C463.695,601 473.961,595.253 473.961,588.175L473.961,562.524Z" style="fill:rgb(19,18,40);stroke:rgb(243,243,245);stroke-width:7.77px;"/>
        </g>
        <g transform="matrix(0.000120946,0.17436,-0.880599,0.000610835,1052.75,-5.32907)">
            <path d="M473.961,573.787C473.961,560.492 419.448,549.699 352.303,549.699C285.158,549.699 230.645,560.492 230.645,573.787L230.645,576.912C230.645,590.206 285.158,601 352.303,601C419.448,601 473.961,590.206 473.961,576.912L473.961,573.787Z" style="fill:rgb(28,155,255);stroke:rgb(243,243,245);stroke-width:9.45px;"/>
        </g>
    </g>
</svg>
