<?xml version="1.0" encoding="UTF-8" standalone="no"?>
<!DOCTYPE svg PUBLIC "-//W3C//DTD SVG 1.1//EN" "http://www.w3.org/Graphics/SVG/1.1/DTD/svg11.dtd">
<svg width="100%" height="100%" viewBox="0 0 1067 1067" version="1.1" xmlns="http://www.w3.org/2000/svg" xmlns:xlink="http://www.w3.org/1999/xlink" xml:space="preserve" xmlns:serif="http://www.serif.com/" style="fill-rule:evenodd;clip-rule:evenodd;stroke-linecap:round;stroke-linejoin:round;stroke-miterlimit:1.5;">
    <g transform="matrix(1.33333,0,0,1.33333,0,0)">
        <path d="M21.789,244.827C21.817,233.195 21.874,209.931 22.266,198.651C22.516,191.458 23.153,183.559 24.139,177.142C25.025,171.386 26.581,165.744 28.187,160.147C29.946,154.014 32.255,146.852 34.696,140.348C37.189,133.705 39.835,126.745 43.145,120.289C46.571,113.604 51.207,106.388 55.257,100.238C59.07,94.449 63.213,88.467 67.446,83.39C71.496,78.533 76.18,74.048 80.657,69.775C85.045,65.588 89.655,61.553 94.311,57.751C98.933,53.978 103.655,50.31 108.595,46.963C113.729,43.486 119.331,39.74 125.116,36.886C131.235,33.866 139.716,30.809 145.31,28.848C149.677,27.318 154.188,26.229 158.68,25.123C163.65,23.9 169.803,22.388 175.131,21.509C180.263,20.663 185.454,20.172 190.646,19.854C197.809,19.414 208.954,19.054 218.114,18.871C228.201,18.67 240.149,18.721 251.167,18.648C264.797,18.557 288.196,18.405 299.896,18.329" style="fill:none;stroke:black;stroke-width:16px;"/>
        <g transform="matrix(-1,0,0,1,803.64,0.201742)">
            <path d="M21.789,244.827C21.817,233.195 21.874,209.931 22.266,198.651C22.516,191.458 23.153,183.559 24.139,177.142C25.025,171.386 26.581,165.744 28.187,160.147C29.946,154.014 32.255,146.852 34.696,140.348C37.189,133.705 39.835,126.745 43.145,120.289C46.571,113.604 51.207,106.388 55.257,100.238C59.07,94.449 63.213,88.467 67.446,83.39C71.496,78.533 76.18,74.048 80.657,69.775C85.045,65.588 89.655,61.553 94.311,57.751C98.933,53.978 103.655,50.31 108.595,46.963C113.729,43.486 119.331,39.74 125.116,36.886C131.235,33.866 139.716,30.809 145.31,28.848C149.677,27.318 154.188,26.229 158.68,25.123C163.65,23.9 169.803,22.388 175.131,21.509C180.263,20.663 185.454,20.172 190.646,19.854C197.809,19.414 208.954,19.054 218.114,18.871C228.201,18.67 240.149,18.721 251.167,18.648C264.797,18.557 288.196,18.405 299.896,18.329" style="fill:none;stroke:black;stroke-width:16px;"/>
        </g>
        <g transform="matrix(-1,0,0,-1,801.067,800.334)">
            <path d="M21.789,244.827C21.817,233.195 21.874,209.931 22.266,198.651C22.516,191.458 23.153,183.559 24.139,177.142C25.025,171.386 26.581,165.744 28.187,160.147C29.946,154.014 32.255,146.852 34.696,140.348C37.189,133.705 39.835,126.745 43.145,120.289C46.571,113.604 51.207,106.388 55.257,100.238C59.07,94.449 63.213,88.467 67.446,83.39C71.496,78.533 76.18,74.048 80.657,69.775C85.045,65.588 89.655,61.553 94.311,57.751C98.933,53.978 103.655,50.31 108.595,46.963C113.729,43.486 119.331,39.74 125.116,36.886C131.235,33.866 139.716,30.809 145.31,28.848C149.677,27.318 154.188,26.229 158.68,25.123C163.65,23.9 169.803,22.388 175.131,21.509C180.263,20.663 185.454,20.172 190.646,19.854C197.809,19.414 208.954,19.054 218.114,18.871C228.201,18.67 240.149,18.721 251.167,18.648C264.797,18.557 288.196,18.405 299.896,18.329" style="fill:none;stroke:black;stroke-width:16px;"/>
        </g>
        <g transform="matrix(1,0,0,-1,-5.85391,801.463)">
            <path d="M21.789,244.827C21.817,233.195 21.874,209.931 22.266,198.651C22.516,191.458 23.153,183.559 24.139,177.142C25.025,171.386 26.581,165.744 28.187,160.147C29.946,154.014 32.255,146.852 34.696,140.348C37.189,133.705 39.835,126.745 43.145,120.289C46.571,113.604 51.207,106.388 55.257,100.238C59.07,94.449 63.213,88.467 67.446,83.39C71.496,78.533 76.18,74.048 80.657,69.775C85.045,65.588 89.655,61.553 94.311,57.751C98.933,53.978 103.655,50.31 108.595,46.963C113.729,43.486 119.331,39.74 125.116,36.886C131.235,33.866 139.716,30.809 145.31,28.848C149.677,27.318 154.188,26.229 158.68,25.123C163.65,23.9 169.803,22.388 175.131,21.509C180.263,20.663 185.454,20.172 190.646,19.854C197.809,19.414 208.954,19.054 218.114,18.871C228.201,18.67 240.149,18.721 251.167,18.648C264.797,18.557 288.196,18.405 299.896,18.329" style="fill:none;stroke:black;stroke-width:16px;"/>
        </g>
    </g>
</svg>
